<svg width="24" height="24" viewBox="0 0 24 24" fill="none" xmlns="http://www.w3.org/2000/svg">
<path d="M16 2V6" stroke="#8F97A2" stroke-width="1.5" stroke-linecap="round" stroke-linejoin="round"/>
<path d="M8 2V6" stroke="#8F97A2" stroke-width="1.5" stroke-linecap="round" stroke-linejoin="round"/>
<path d="M3 9H21" stroke="#8F97A2" stroke-width="1.5" stroke-linecap="round" stroke-linejoin="round"/>
<path d="M19 4H5C3.895 4 3 4.895 3 6V19C3 20.105 3.895 21 5 21H19C20.105 21 21 20.105 21 19V6C21 4.895 20.105 4 19 4Z" stroke="#8F97A2" stroke-width="1.5" stroke-linecap="round" stroke-linejoin="round"/>
<path d="M11.9971 16.5C11.5831 16.5 11.2471 16.836 11.2501 17.25C11.2501 17.664 11.5861 18 12.0001 18C12.4141 18 12.7501 17.664 12.7501 17.25C12.7501 16.836 12.4141 16.5 11.9971 16.5Z" fill="#303030"/>
<path d="M7.39703 16.5C6.98304 16.5 6.64704 16.836 6.65004 17.25C6.65004 17.664 6.98604 18 7.40003 18C7.81403 18 8.15002 17.664 8.15002 17.25C8.15002 16.836 7.81403 16.5 7.39703 16.5Z" fill="#303030"/>
<path d="M7.39703 12C6.98304 12 6.64704 12.336 6.65004 12.75C6.65004 13.164 6.98604 13.5 7.40003 13.5C7.81403 13.5 8.15002 13.164 8.15002 12.75C8.15002 12.336 7.81403 12 7.39703 12Z" fill="#303030"/>
<path d="M16.5972 16.5C16.1832 16.5 15.8472 16.836 15.8502 17.25C15.8502 17.664 16.1862 18 16.6002 18C17.0142 18 17.3502 17.664 17.3502 17.25C17.3502 16.836 17.0142 16.5 16.5972 16.5Z" fill="#303030"/>
<path d="M11.9971 12C11.5831 12 11.2471 12.336 11.2501 12.75C11.2501 13.164 11.5861 13.5 12.0001 13.5C12.4141 13.5 12.7501 13.164 12.7501 12.75C12.7501 12.336 12.4141 12 11.9971 12Z" fill="#303030"/>
<path d="M16.5972 12C16.1832 12 15.8472 12.336 15.8502 12.75C15.8502 13.164 16.1862 13.5 16.6002 13.5C17.0142 13.5 17.3502 13.164 17.3502 12.75C17.3502 12.336 17.0142 12 16.5972 12Z" fill="#303030"/>
</svg>
