<svg width="20" height="20" viewBox="0 0 20 20" fill="none" xmlns="http://www.w3.org/2000/svg">
<path d="M9.99999 5.83337C11.1508 5.83337 12.0833 6.76587 12.0833 7.91671C12.0833 9.06754 11.1508 10 9.99999 10C8.84916 10 7.91666 9.06754 7.91666 7.91671C7.91666 6.76587 8.84916 5.83337 9.99999 5.83337Z" stroke="#303030" stroke-width="1.5" stroke-linecap="round" stroke-linejoin="round"/>
<path d="M13.75 13.3334C13.6408 13.0592 13.4717 12.8125 13.255 12.6117C12.8892 12.2717 12.41 12.0834 11.91 12.0834C11.0767 12.0834 8.92333 12.0834 8.08999 12.0834C7.58999 12.0834 7.11166 12.2725 6.74499 12.6117C6.52833 12.8125 6.35916 13.0592 6.24999 13.3334" stroke="#303030" stroke-width="1.5" stroke-linecap="round" stroke-linejoin="round"/>
<path d="M8.74999 17.3875C6.49082 17.0075 4.57582 15.6225 3.48249 13.7025" stroke="#303030" stroke-width="1.5" stroke-linecap="round" stroke-linejoin="round"/>
<path d="M4.29166 5.14172C3.17666 6.45089 2.49999 8.14506 2.49999 10.0001C2.49999 10.4626 2.54833 10.9134 2.62833 11.3534" stroke="#303030" stroke-width="1.5" stroke-linecap="round" stroke-linejoin="round"/>
<path d="M11.25 17.3875C13.5092 17.0075 15.4242 15.6225 16.5175 13.7025" stroke="#303030" stroke-width="1.5" stroke-linecap="round" stroke-linejoin="round"/>
<path d="M13.7917 3.53667C12.6783 2.88167 11.385 2.5 10 2.5C8.615 2.5 7.32166 2.88167 6.20833 3.53667" stroke="#303030" stroke-width="1.5" stroke-linecap="round" stroke-linejoin="round"/>
<path d="M15.7083 5.14172C16.8233 6.45089 17.5 8.14506 17.5 10.0001C17.5 10.4626 17.4517 10.9134 17.3717 11.3534" stroke="#303030" stroke-width="1.5" stroke-linecap="round" stroke-linejoin="round"/>
</svg>
