<svg width="20" height="20" viewBox="0 0 20 20" fill="none" xmlns="http://www.w3.org/2000/svg">
<path d="M9.54999 3.5592C8.74499 3.59587 7.93416 3.77004 7.14999 4.11004C4.21916 5.3817 2.63833 8.46004 3.12999 11.4759" stroke="#303030" stroke-width="1.5" stroke-linecap="round" stroke-linejoin="round"/>
<path d="M15.9375 13.5133C16.3075 12.7975 16.5625 12.0084 16.66 11.16C17.025 7.98585 15.1483 5.07835 12.2908 3.99585" stroke="#303030" stroke-width="1.5" stroke-linecap="round" stroke-linejoin="round"/>
<path d="M7.40416 2.37L9.77166 3.17583L8.61999 5.17249" stroke="#303030" stroke-width="1.5" stroke-linecap="round" stroke-linejoin="round"/>
<path d="M18.0417 12.2517L16.16 13.8992L15.0067 11.9033" stroke="#303030" stroke-width="1.5" stroke-linecap="round" stroke-linejoin="round"/>
<path d="M4.16499 16.5225L3.67916 14.0692L5.98416 14.0684" stroke="#303030" stroke-width="1.5" stroke-linecap="round" stroke-linejoin="round"/>
<path d="M4.12249 14.0699C4.55749 14.7491 5.11332 15.3641 5.79916 15.8724C8.36582 17.7749 11.8225 17.6049 14.1883 15.6708" stroke="#303030" stroke-width="1.5" stroke-linecap="round" stroke-linejoin="round"/>
</svg>
