<svg width="100" height="24" viewBox="0 0 100 24" fill="none" xmlns="http://www.w3.org/2000/svg">
<path d="M2.87454 23.6369C1.95275 23.6369 1.23714 23.4058 0.727732 22.9436C0.242577 22.4814 0 21.8432 0 21.0289V2.90509C0 2.04677 0.242577 1.39752 0.727732 0.957358C1.21289 0.517194 1.91636 0.297111 2.83815 0.297111C3.73569 0.297111 4.42704 0.517194 4.91219 0.957358C5.39734 1.39752 5.63992 2.04677 5.63992 2.90509V19.3122H15.3915C16.1678 19.3122 16.7621 19.4993 17.1745 19.8735C17.6111 20.2476 17.8294 20.7758 17.8294 21.458C17.8294 22.1623 17.6111 22.7015 17.1745 23.0757C16.7621 23.4498 16.1678 23.6369 15.3915 23.6369H2.87454Z" fill="#0065AE"/>
<path d="M31.3354 24C28.8126 24 26.593 23.5048 24.6766 22.5144C22.7845 21.5021 21.3048 20.0935 20.2375 18.2889C19.1944 16.4842 18.6729 14.3824 18.6729 11.9835C18.6729 10.1568 18.9639 8.51719 19.5461 7.06465C20.1526 5.5901 21.0137 4.33563 22.1296 3.30124C23.2454 2.24484 24.5796 1.43054 26.1321 0.85832C27.7089 0.286107 29.4433 0 31.3354 0C33.9067 0 36.1384 0.495186 38.0305 1.48556C39.9226 2.47593 41.3902 3.87345 42.4333 5.67813C43.5006 7.4608 44.0343 9.55158 44.0343 11.9505C44.0343 13.7772 43.7311 15.4278 43.1246 16.9023C42.5182 18.3769 41.657 19.6424 40.5412 20.6988C39.4253 21.7552 38.0912 22.5695 36.5387 23.1417C34.9862 23.7139 33.2517 24 31.3354 24ZM31.3354 19.6424C32.7666 19.6424 33.9795 19.3453 34.974 18.751C35.9929 18.1348 36.7691 17.2545 37.3028 16.11C37.8607 14.9436 38.1397 13.5681 38.1397 11.9835C38.1397 9.56258 37.5454 7.69188 36.3567 6.37139C35.1681 5.02888 33.4943 4.35763 31.3354 4.35763C29.9284 4.35763 28.7156 4.65474 27.6967 5.24897C26.6779 5.84319 25.9017 6.71252 25.368 7.85694C24.8343 9.00137 24.5675 10.3769 24.5675 11.9835C24.5675 14.3824 25.1618 16.2641 26.3504 17.6286C27.5391 18.9711 29.2007 19.6424 31.3354 19.6424Z" fill="#0065AE"/>
<path d="M61.0959 24C58.2093 24 55.7592 23.5048 53.7458 22.5144C51.7567 21.5241 50.2406 20.1376 49.1975 18.3549C48.1544 16.5722 47.6329 14.4814 47.6329 12.0825C47.6329 10.2338 47.9361 8.57221 48.5425 7.09766C49.1732 5.6011 50.0708 4.33563 51.2352 3.30124C52.4238 2.24484 53.855 1.43054 55.5288 0.85832C57.2268 0.286107 59.1432 0 61.2778 0C62.5878 0 63.8977 0.132049 65.2076 0.396147C66.5175 0.660247 67.7789 1.10041 68.9918 1.71664C69.5012 1.98074 69.8408 2.32187 70.0106 2.74003C70.2047 3.13618 70.2532 3.56534 70.1562 4.02751C70.0834 4.46768 69.8893 4.86382 69.574 5.21595C69.2829 5.54608 68.8948 5.76616 68.4096 5.8762C67.9487 5.96423 67.4151 5.8762 66.8086 5.6121C66.0081 5.21596 65.1591 4.92985 64.2615 4.75378C63.364 4.55571 62.3816 4.45667 61.3142 4.45667C59.5919 4.45667 58.1486 4.75378 56.9842 5.348C55.8199 5.92022 54.9466 6.77854 54.3644 7.92297C53.8065 9.04539 53.5275 10.4319 53.5275 12.0825C53.5275 14.5695 54.1825 16.4512 55.4924 17.7276C56.8266 19.0041 58.7914 19.6424 61.387 19.6424C62.2603 19.6424 63.1578 19.5653 64.0796 19.4113C65.0014 19.2572 65.9111 19.0371 66.8086 18.751L65.7534 20.8308V14.4924H62.4786C61.7509 14.4924 61.1929 14.3274 60.8048 13.9972C60.4167 13.6671 60.2226 13.216 60.2226 12.6437C60.2226 12.0495 60.4167 11.5983 60.8048 11.2902C61.1929 10.9601 61.7509 10.795 62.4786 10.795H68.1913C68.919 10.795 69.4648 10.9711 69.8287 11.3232C70.2168 11.6754 70.4109 12.1816 70.4109 12.8418V20.5007C70.4109 21.0729 70.2896 21.5571 70.047 21.9532C69.8044 22.3494 69.3921 22.6355 68.8099 22.8116C67.7183 23.1637 66.4933 23.4498 65.1348 23.6699C63.7764 23.89 62.4301 24 61.0959 24Z" fill="#0065AE"/>
<path d="M87.3011 24C84.7783 24 82.5587 23.5048 80.6423 22.5144C78.7502 21.5021 77.2705 20.0935 76.2032 18.2889C75.1601 16.4842 74.6385 14.3824 74.6385 11.9835C74.6385 10.1568 74.9296 8.51719 75.5118 7.06465C76.1183 5.5901 76.9794 4.33563 78.0953 3.30124C79.2111 2.24484 80.5453 1.43054 82.0978 0.85832C83.6746 0.286107 85.409 0 87.3011 0C89.8724 0 92.1041 0.495186 93.9962 1.48556C95.8883 2.47593 97.3559 3.87345 98.399 5.67813C99.4663 7.4608 100 9.55158 100 11.9505C100 13.7772 99.6968 15.4278 99.0903 16.9023C98.4839 18.3769 97.6227 19.6424 96.5069 20.6988C95.391 21.7552 94.0569 22.5695 92.5044 23.1417C90.9519 23.7139 89.2174 24 87.3011 24ZM87.3011 19.6424C88.7323 19.6424 89.9452 19.3453 90.9397 18.751C91.9586 18.1348 92.7348 17.2545 93.2685 16.11C93.8264 14.9436 94.1054 13.5681 94.1054 11.9835C94.1054 9.56258 93.5111 7.69188 92.3224 6.37139C91.1338 5.02888 89.46 4.35763 87.3011 4.35763C85.8941 4.35763 84.6812 4.65474 83.6624 5.24897C82.6436 5.84319 81.8673 6.71252 81.3337 7.85694C80.8 9.00137 80.5332 10.3769 80.5332 11.9835C80.5332 14.3824 81.1275 16.2641 82.3161 17.6286C83.5047 18.9711 85.1664 19.6424 87.3011 19.6424Z" fill="#0065AE"/>
</svg>
