<svg width="24" height="24" viewBox="0 0 24 24" fill="none" xmlns="http://www.w3.org/2000/svg">
<g clip-path="url(#clip0_884_6961)">
<path d="M19 11V7.828C19 7.298 18.789 6.789 18.414 6.414L15.586 3.586C15.211 3.211 14.702 3 14.172 3H7C5.895 3 5 3.895 5 5V19C5 20.105 5.895 21 7 21H11" stroke="#323232" stroke-width="1.5" stroke-linecap="round" stroke-linejoin="round"/>
<path d="M19 8H15C14.448 8 14 7.552 14 7V3" stroke="#323232" stroke-width="1.5" stroke-linecap="round" stroke-linejoin="round"/>
<path d="M7.91203 18C7.75603 18 7.63603 17.958 7.55203 17.874C7.46803 17.79 7.42603 17.67 7.42603 17.514V14.256C7.42603 14.1 7.46803 13.98 7.55203 13.896C7.63603 13.812 7.75603 13.77 7.91203 13.77H9.08203C9.80603 13.77 10.364 13.954 10.756 14.322C11.152 14.686 11.35 15.206 11.35 15.882C11.35 16.222 11.298 16.524 11.194 16.788C11.094 17.048 10.948 17.268 10.756 17.448C10.564 17.628 10.328 17.766 10.048 17.862C9.76803 17.954 9.44603 18 9.08203 18H7.91203ZM8.35603 17.238H9.02803C9.25603 17.238 9.45403 17.21 9.62203 17.154C9.79003 17.098 9.93003 17.014 10.042 16.902C10.154 16.79 10.238 16.65 10.294 16.482C10.35 16.31 10.378 16.11 10.378 15.882C10.378 15.426 10.264 15.088 10.036 14.868C9.81203 14.644 9.47603 14.532 9.02803 14.532H8.35603V17.238Z" fill="#303030"/>
<path d="M13.8345 18.066C13.4185 18.066 13.0525 17.976 12.7365 17.796C12.4245 17.612 12.1805 17.356 12.0045 17.028C11.8325 16.7 11.7465 16.318 11.7465 15.882C11.7465 15.55 11.7945 15.252 11.8905 14.988C11.9905 14.72 12.1325 14.492 12.3165 14.304C12.5005 14.112 12.7205 13.964 12.9765 13.86C13.2365 13.756 13.5225 13.704 13.8345 13.704C14.2585 13.704 14.6265 13.794 14.9385 13.974C15.2505 14.154 15.4925 14.408 15.6645 14.736C15.8405 15.06 15.9285 15.44 15.9285 15.876C15.9285 16.208 15.8785 16.508 15.7785 16.776C15.6785 17.044 15.5365 17.274 15.3525 17.466C15.1685 17.658 14.9485 17.806 14.6925 17.91C14.4365 18.014 14.1505 18.066 13.8345 18.066ZM13.8345 17.274C14.0705 17.274 14.2705 17.22 14.4345 17.112C14.6025 17 14.7305 16.84 14.8185 16.632C14.9105 16.42 14.9565 16.17 14.9565 15.882C14.9565 15.442 14.8585 15.102 14.6625 14.862C14.4665 14.618 14.1905 14.496 13.8345 14.496C13.6025 14.496 13.4025 14.55 13.2345 14.658C13.0665 14.766 12.9385 14.924 12.8505 15.132C12.7625 15.34 12.7185 15.59 12.7185 15.882C12.7185 16.318 12.8165 16.66 13.0125 16.908C13.2085 17.152 13.4825 17.274 13.8345 17.274Z" fill="#303030"/>
<path d="M18.4999 18.066C18.0439 18.066 17.6539 17.976 17.3299 17.796C17.0059 17.616 16.7559 17.364 16.5799 17.04C16.4079 16.712 16.3219 16.326 16.3219 15.882C16.3219 15.55 16.3699 15.252 16.4659 14.988C16.5659 14.72 16.7099 14.492 16.8979 14.304C17.0859 14.112 17.3139 13.964 17.5819 13.86C17.8539 13.756 18.1599 13.704 18.4999 13.704C18.6999 13.704 18.9019 13.73 19.1059 13.782C19.3139 13.83 19.4939 13.9 19.6459 13.992C19.7459 14.048 19.8139 14.118 19.8499 14.202C19.8859 14.286 19.8959 14.37 19.8799 14.454C19.8679 14.538 19.8339 14.61 19.7779 14.67C19.7259 14.73 19.6599 14.768 19.5799 14.784C19.4999 14.8 19.4099 14.782 19.3099 14.73C19.1899 14.658 19.0639 14.606 18.9319 14.574C18.7999 14.542 18.6659 14.526 18.5299 14.526C18.2619 14.526 18.0359 14.58 17.8519 14.688C17.6719 14.792 17.5359 14.944 17.4439 15.144C17.3519 15.344 17.3059 15.59 17.3059 15.882C17.3059 16.17 17.3519 16.416 17.4439 16.62C17.5359 16.824 17.6719 16.98 17.8519 17.088C18.0359 17.192 18.2619 17.244 18.5299 17.244C18.6579 17.244 18.7879 17.228 18.9199 17.196C19.0559 17.164 19.1859 17.114 19.3099 17.046C19.4139 16.994 19.5059 16.976 19.5859 16.992C19.6699 17.004 19.7379 17.04 19.7899 17.1C19.8459 17.156 19.8799 17.224 19.8919 17.304C19.9079 17.384 19.8999 17.464 19.8679 17.544C19.8359 17.624 19.7759 17.692 19.6879 17.748C19.5399 17.848 19.3579 17.926 19.1419 17.982C18.9259 18.038 18.7119 18.066 18.4999 18.066Z" fill="#303030"/>
</g>
<defs>
<clipPath id="clip0_884_6961">
<rect width="24" height="24" fill="white"/>
</clipPath>
</defs>
</svg>
