<svg width="24" height="24" viewBox="0 0 24 24" fill="none" xmlns="http://www.w3.org/2000/svg">
<path d="M14.6715 0.9375H5.25C4.85218 0.9375 4.47064 1.09554 4.18934 1.37684C3.90804 1.65814 3.75 2.03968 3.75 2.4375V21.1875C3.75 21.5853 3.90804 21.9669 4.18934 22.2482C4.47064 22.5295 4.85218 22.6875 5.25 22.6875H18.75C19.1478 22.6875 19.5294 22.5295 19.8107 22.2482C20.092 21.9669 20.25 21.5853 20.25 21.1875V6.516L14.6715 0.9375Z" fill="#EDEDED"/>
<path d="M20.1402 6.40617L14.7815 1.04742C14.729 0.994989 14.6622 0.959286 14.5895 0.944823C14.5168 0.930361 14.4414 0.937787 14.3729 0.966163C14.3044 0.994539 14.2458 1.04259 14.2046 1.10425C14.1634 1.1659 14.1414 1.23839 14.1414 1.31254V5.54629C14.1414 5.94412 14.2994 6.32565 14.5807 6.60695C14.862 6.88826 15.2435 7.04629 15.6414 7.04629H19.8751C19.9493 7.04628 20.0218 7.02427 20.0834 6.98307C20.1451 6.94186 20.1931 6.8833 20.2215 6.81479C20.2499 6.74628 20.2573 6.67089 20.2428 6.59816C20.2284 6.52542 20.1927 6.45861 20.1402 6.40617Z" fill="#C6C6C6"/>
<path d="M19.875 16.2723H11.2823L10.3823 15.2429C10.3119 15.1625 10.2251 15.098 10.1278 15.0539C10.0304 15.0097 9.92477 14.9868 9.81787 14.9868H4.125C3.92609 14.9868 3.73532 15.0658 3.59467 15.2065C3.45402 15.3471 3.375 15.5379 3.375 15.7368V21.1874C3.3756 21.6845 3.57333 22.1611 3.92483 22.5126C4.27633 22.8641 4.7529 23.0618 5.25 23.0624H18.75C19.2471 23.0618 19.7237 22.8641 20.0752 22.5126C20.4267 22.1611 20.6244 21.6845 20.625 21.1874V17.0223C20.625 16.8234 20.546 16.6326 20.4053 16.492C20.2647 16.3513 20.0739 16.2723 19.875 16.2723Z" fill="#0461A0"/>
<path d="M6 6.39783H12.6412V7.14783H6V6.39783ZM11.3588 11.343H18V12.093H11.3588V11.343ZM6 8.04558H18V8.79558H6V8.04558ZM6 9.69408H18V10.4441H6V9.69408Z" fill="#C6C6C6"/>
<path d="M7.80908 21.375C7.69208 21.375 7.60208 21.3435 7.53908 21.2805C7.47608 21.2175 7.44458 21.1275 7.44458 21.0105V18.567C7.44458 18.45 7.47608 18.36 7.53908 18.297C7.60208 18.234 7.69208 18.2025 7.80908 18.2025H8.68658C9.22958 18.2025 9.64808 18.3405 9.94208 18.6165C10.2391 18.8895 10.3876 19.2795 10.3876 19.7865C10.3876 20.0415 10.3486 20.268 10.2706 20.466C10.1956 20.661 10.0861 20.826 9.94208 20.961C9.79808 21.096 9.62108 21.1995 9.41108 21.2715C9.20108 21.3405 8.95958 21.375 8.68658 21.375H7.80908ZM8.14208 20.8035H8.64608C8.81708 20.8035 8.96558 20.7825 9.09158 20.7405C9.21758 20.6985 9.32258 20.6355 9.40658 20.5515C9.49058 20.4675 9.55358 20.3625 9.59558 20.2365C9.63758 20.1075 9.65858 19.9575 9.65858 19.7865C9.65858 19.4445 9.57308 19.191 9.40208 19.026C9.23408 18.858 8.98208 18.774 8.64608 18.774H8.14208V20.8035Z" fill="white"/>
<path d="M12.2134 21.4245C11.9014 21.4245 11.6269 21.357 11.3899 21.222C11.1559 21.084 10.9729 20.892 10.8409 20.646C10.7119 20.4 10.6474 20.1135 10.6474 19.7865C10.6474 19.5375 10.6834 19.314 10.7554 19.116C10.8304 18.915 10.9369 18.744 11.0749 18.603C11.2129 18.459 11.3779 18.348 11.5699 18.27C11.7649 18.192 11.9794 18.153 12.2134 18.153C12.5314 18.153 12.8074 18.2205 13.0414 18.3555C13.2754 18.4905 13.4569 18.681 13.5859 18.927C13.7179 19.17 13.7839 19.455 13.7839 19.782C13.7839 20.031 13.7464 20.256 13.6714 20.457C13.5964 20.658 13.4899 20.8305 13.3519 20.9745C13.2139 21.1185 13.0489 21.2295 12.8569 21.3075C12.6649 21.3855 12.4504 21.4245 12.2134 21.4245ZM12.2134 20.8305C12.3904 20.8305 12.5404 20.79 12.6634 20.709C12.7894 20.625 12.8854 20.505 12.9514 20.349C13.0204 20.19 13.0549 20.0025 13.0549 19.7865C13.0549 19.4565 12.9814 19.2015 12.8344 19.0215C12.6874 18.8385 12.4804 18.747 12.2134 18.747C12.0394 18.747 11.8894 18.7875 11.7634 18.8685C11.6374 18.9495 11.5414 19.068 11.4754 19.224C11.4094 19.38 11.3764 19.5675 11.3764 19.7865C11.3764 20.1135 11.4499 20.37 11.5969 20.556C11.7439 20.739 11.9494 20.8305 12.2134 20.8305Z" fill="white"/>
<path d="M15.675 21.4245C15.333 21.4245 15.0405 21.357 14.7975 21.222C14.5545 21.087 14.367 20.898 14.235 20.655C14.106 20.409 14.0415 20.1195 14.0415 19.7865C14.0415 19.5375 14.0775 19.314 14.1495 19.116C14.2245 18.915 14.3325 18.744 14.4735 18.603C14.6145 18.459 14.7855 18.348 14.9865 18.27C15.1905 18.192 15.42 18.153 15.675 18.153C15.825 18.153 15.9765 18.1725 16.1295 18.2115C16.2855 18.2475 16.4205 18.3 16.5345 18.369C16.6095 18.411 16.6605 18.4635 16.6875 18.5265C16.7145 18.5895 16.722 18.6525 16.71 18.7155C16.701 18.7785 16.6755 18.8325 16.6335 18.8775C16.5945 18.9225 16.545 18.951 16.485 18.963C16.425 18.975 16.3575 18.9615 16.2825 18.9225C16.1925 18.8685 16.098 18.8295 15.999 18.8055C15.9 18.7815 15.7995 18.7695 15.6975 18.7695C15.4965 18.7695 15.327 18.81 15.189 18.891C15.054 18.969 14.952 19.083 14.883 19.233C14.814 19.383 14.7795 19.5675 14.7795 19.7865C14.7795 20.0025 14.814 20.187 14.883 20.34C14.952 20.493 15.054 20.61 15.189 20.691C15.327 20.769 15.4965 20.808 15.6975 20.808C15.7935 20.808 15.891 20.796 15.99 20.772C16.092 20.748 16.1895 20.7105 16.2825 20.6595C16.3605 20.6205 16.4295 20.607 16.4895 20.619C16.5525 20.628 16.6035 20.655 16.6425 20.7C16.6845 20.742 16.71 20.793 16.719 20.853C16.731 20.913 16.725 20.973 16.701 21.033C16.677 21.093 16.632 21.144 16.566 21.186C16.455 21.261 16.3185 21.3195 16.1565 21.3615C15.9945 21.4035 15.834 21.4245 15.675 21.4245Z" fill="white"/>
</svg>
