<svg width="20" height="20" viewBox="0 0 20 20" fill="none" xmlns="http://www.w3.org/2000/svg">
<path d="M15 10.8333V15.8333C15 16.7542 14.2542 17.5 13.3333 17.5H4.16666C3.24583 17.5 2.49999 16.7542 2.49999 15.8333V6.66667C2.49999 5.74583 3.24583 5 4.16666 5H7.49999" stroke="#303030" stroke-width="1.5" stroke-linecap="round" stroke-linejoin="round"/>
<path d="M6.66666 12.5L9.29166 12.1759C9.47582 12.1534 9.64749 12.0692 9.77916 11.9384L16.1383 5.5792C16.8425 4.87504 16.8425 3.73337 16.1383 3.02837C15.4342 2.3242 14.2925 2.3242 13.5875 3.02837L7.28749 9.32837C7.15999 9.45587 7.07749 9.62087 7.05166 9.80004L6.66666 12.5V12.5Z" stroke="#303030" stroke-width="1.5" stroke-linecap="round" stroke-linejoin="round"/>
</svg>
