<svg width="40" height="40" viewBox="0 0 40 40" fill="none" xmlns="http://www.w3.org/2000/svg">
<path d="M26 26V22.5C26 21.672 26.672 21 27.5 21C28.328 21 29 21.672 29 22.5V27C29 28.657 27.657 30 26 30C24.343 30 23 28.657 23 27V24" stroke="#303030" stroke-width="1.5" stroke-linecap="round" stroke-linejoin="round"/>
<path d="M19 24H15" stroke="#303030" stroke-width="1.5" stroke-linecap="round" stroke-linejoin="round"/>
<path d="M22 20H15" stroke="#303030" stroke-width="1.5" stroke-linecap="round" stroke-linejoin="round"/>
<path d="M22 16H15" stroke="#303030" stroke-width="1.5" stroke-linecap="round" stroke-linejoin="round"/>
<path d="M26 17V13C26 11.895 25.105 11 24 11H13C11.895 11 11 11.895 11 13V27C11 28.105 11.895 29 13 29H19" stroke="#303030" stroke-width="1.5" stroke-linecap="round" stroke-linejoin="round"/>
</svg>
