<svg width="40" height="40" viewBox="0 0 40 40" fill="none" xmlns="http://www.w3.org/2000/svg">
<path d="M24.5 30C21.739 30 19.5 27.761 19.5 25C19.5 22.239 21.739 20 24.5 20C27.262 20 29.5 22.239 29.5 25C29.5 27.761 27.262 30 24.5 30Z" stroke="#303030" stroke-width="1.5" stroke-linecap="round" stroke-linejoin="round"/>
<path d="M27 20.673V15.828C27 15.298 26.789 14.789 26.414 14.414L23.586 11.586C23.211 11.211 22.702 11 22.172 11H13C11.895 11 11 11.895 11 13V27C11 28.105 11.895 29 13 29H21.509" stroke="#303030" stroke-width="1.5" stroke-linecap="round" stroke-linejoin="round"/>
<path d="M27 16H23C22.448 16 22 15.552 22 15V11" stroke="#303030" stroke-width="1.5" stroke-linecap="round" stroke-linejoin="round"/>
<path d="M24.381 23.314V25.267L25.917 26.204" stroke="#303030" stroke-width="1.5" stroke-linecap="round" stroke-linejoin="round"/>
</svg>
