<svg width="40" height="40" viewBox="0 0 40 40" fill="none" xmlns="http://www.w3.org/2000/svg">
<path d="M26 23V24" stroke="#303030" stroke-width="1.5" stroke-linecap="round" stroke-linejoin="round"/>
<path d="M26 28V29" stroke="#303030" stroke-width="1.5" stroke-linecap="round" stroke-linejoin="round"/>
<path d="M23.4 24.5L24.262 25" stroke="#303030" stroke-width="1.5" stroke-linecap="round" stroke-linejoin="round"/>
<path d="M27.738 27L28.6 27.5" stroke="#303030" stroke-width="1.5" stroke-linecap="round" stroke-linejoin="round"/>
<path d="M23.4 27.5L24.262 27" stroke="#303030" stroke-width="1.5" stroke-linecap="round" stroke-linejoin="round"/>
<path d="M27.738 25L28.6 24.5" stroke="#303030" stroke-width="1.5" stroke-linecap="round" stroke-linejoin="round"/>
<path d="M27.414 24.586C28.195 25.367 28.195 26.633 27.414 27.414C26.633 28.195 25.367 28.195 24.586 27.414C23.805 26.633 23.805 25.367 24.586 24.586C25.367 23.805 26.633 23.805 27.414 24.586Z" stroke="#303030" stroke-width="1.5" stroke-linecap="round" stroke-linejoin="round"/>
<path d="M23.0052 13.2448C24.6649 14.9045 24.6649 17.5955 23.0052 19.2552C21.3455 20.9149 18.6545 20.9149 16.9948 19.2552C15.3351 17.5955 15.3351 14.9045 16.9948 13.2448C18.6545 11.5851 21.3455 11.5851 23.0052 13.2448" stroke="#303030" stroke-width="1.5" stroke-linecap="round" stroke-linejoin="round"/>
<path d="M12 28C12 25.515 14.015 23.5 16.5 23.5H19.083" stroke="#303030" stroke-width="1.5" stroke-linecap="round" stroke-linejoin="round"/>
</svg>
