<svg width="40" height="40" viewBox="0 0 40 40" fill="none" xmlns="http://www.w3.org/2000/svg">
<path d="M27 16H23C22.448 16 22 15.552 22 15V11" stroke="#303030" stroke-width="1.5" stroke-linecap="round" stroke-linejoin="round"/>
<path d="M13 21V13C13 11.895 13.895 11 15 11H22.172C22.702 11 23.211 11.211 23.586 11.586L26.414 14.414C26.789 14.789 27 15.298 27 15.828V27C27 28.105 26.105 29 25 29H21" stroke="#303030" stroke-width="1.5" stroke-linecap="round" stroke-linejoin="round"/>
<path d="M18.247 27.389C17.242 28.394 15.615 28.394 14.61 27.389C13.605 26.384 13.605 24.757 14.61 23.752C15.615 22.747 17.242 22.747 18.247 23.752C19.251 24.757 19.251 26.386 18.247 27.389Z" stroke="#303030" stroke-width="1.5" stroke-linecap="round" stroke-linejoin="round"/>
<path d="M17 19H23" stroke="#303030" stroke-width="1.5" stroke-linecap="round" stroke-linejoin="round"/>
<path d="M21 22H23" stroke="#303030" stroke-width="1.5" stroke-linecap="round" stroke-linejoin="round"/>
<path d="M13 29L14.61 27.389" stroke="#303030" stroke-width="1.5" stroke-linecap="round" stroke-linejoin="round"/>
</svg>
