<svg width="24" height="24" viewBox="0 0 24 24" fill="none" xmlns="http://www.w3.org/2000/svg">
<g clip-path="url(#clip0_884_7186)">
<path d="M19 11V7.828C19 7.298 18.789 6.789 18.414 6.414L15.586 3.586C15.211 3.211 14.702 3 14.172 3H7C5.895 3 5 3.895 5 5V19C5 20.105 5.895 21 7 21H11" stroke="#323232" stroke-width="1.5" stroke-linecap="round" stroke-linejoin="round"/>
<path d="M19 8H15C14.448 8 14 7.552 14 7V3" stroke="#323232" stroke-width="1.5" stroke-linecap="round" stroke-linejoin="round"/>
<path d="M8.34191 18.048C8.20591 18.052 8.09991 18.016 8.02391 17.94C7.94791 17.864 7.90991 17.766 7.90991 17.646C7.90991 17.554 7.93791 17.474 7.99391 17.406C8.04591 17.334 8.12391 17.296 8.22791 17.292L8.40191 17.28C8.56191 17.268 8.68191 17.222 8.76191 17.142C8.84191 17.062 8.88191 16.94 8.88191 16.776V14.19C8.88191 14.038 8.92191 13.922 9.00191 13.842C9.08191 13.758 9.19591 13.716 9.34391 13.716C9.49591 13.716 9.61191 13.758 9.69191 13.842C9.77191 13.922 9.81191 14.038 9.81191 14.19V16.764C9.81191 17.028 9.76391 17.252 9.66791 17.436C9.57591 17.616 9.43591 17.756 9.24791 17.856C9.05991 17.956 8.82791 18.016 8.55191 18.036L8.34191 18.048Z" fill="#303030"/>
<path d="M10.9263 18.054C10.7743 18.054 10.6583 18.012 10.5783 17.928C10.4983 17.844 10.4583 17.726 10.4583 17.574V14.244C10.4583 14.088 10.4983 13.97 10.5783 13.89C10.6623 13.81 10.7803 13.77 10.9323 13.77H12.3903C12.8623 13.77 13.2263 13.89 13.4823 14.13C13.7383 14.366 13.8663 14.696 13.8663 15.12C13.8663 15.544 13.7383 15.876 13.4823 16.116C13.2263 16.356 12.8623 16.476 12.3903 16.476H11.3883V17.574C11.3883 17.726 11.3483 17.844 11.2683 17.928C11.1923 18.012 11.0783 18.054 10.9263 18.054ZM11.3883 15.756H12.2343C12.4743 15.756 12.6563 15.702 12.7803 15.594C12.9083 15.486 12.9723 15.328 12.9723 15.12C12.9723 14.912 12.9083 14.756 12.7803 14.652C12.6563 14.548 12.4743 14.496 12.2343 14.496H11.3883V15.756Z" fill="#303030"/>
<path d="M16.3191 18.066C15.8431 18.066 15.4391 17.976 15.1071 17.796C14.7791 17.616 14.5291 17.364 14.3571 17.04C14.1851 16.716 14.0991 16.336 14.0991 15.9C14.0991 15.564 14.1491 15.262 14.2491 14.994C14.3531 14.722 14.5011 14.492 14.6931 14.304C14.8891 14.112 15.1251 13.964 15.4011 13.86C15.6811 13.756 15.9971 13.704 16.3491 13.704C16.5651 13.704 16.7811 13.728 16.9971 13.776C17.2131 13.824 17.4211 13.904 17.6211 14.016C17.7051 14.064 17.7611 14.126 17.7891 14.202C17.8211 14.274 17.8291 14.352 17.8131 14.436C17.8011 14.516 17.7691 14.588 17.7171 14.652C17.6691 14.712 17.6051 14.752 17.5251 14.772C17.4491 14.788 17.3611 14.772 17.2611 14.724C17.1291 14.652 16.9891 14.6 16.8411 14.568C16.6931 14.532 16.5311 14.514 16.3551 14.514C16.0711 14.514 15.8331 14.568 15.6411 14.676C15.4491 14.78 15.3051 14.936 15.2091 15.144C15.1171 15.348 15.0711 15.6 15.0711 15.9C15.0711 16.352 15.1791 16.694 15.3951 16.926C15.6151 17.158 15.9391 17.274 16.3671 17.274C16.5111 17.274 16.6591 17.26 16.8111 17.232C16.9631 17.204 17.1131 17.164 17.2611 17.112L17.0871 17.49V16.338H16.5471C16.4271 16.338 16.3351 16.308 16.2711 16.248C16.2071 16.188 16.1751 16.106 16.1751 16.002C16.1751 15.894 16.2071 15.812 16.2711 15.756C16.3351 15.696 16.4271 15.666 16.5471 15.666H17.4891C17.6091 15.666 17.6991 15.698 17.7591 15.762C17.8231 15.826 17.8551 15.918 17.8551 16.038V17.43C17.8551 17.534 17.8351 17.622 17.7951 17.694C17.7551 17.766 17.6871 17.818 17.5911 17.85C17.4111 17.914 17.2091 17.966 16.9851 18.006C16.7611 18.046 16.5391 18.066 16.3191 18.066Z" fill="#303030"/>
</g>
<defs>
<clipPath id="clip0_884_7186">
<rect width="24" height="24" fill="white"/>
</clipPath>
</defs>
</svg>
