<svg width="24" height="24" viewBox="0 0 24 24" fill="none" xmlns="http://www.w3.org/2000/svg">
<path d="M14.6715 0.9375H5.25C4.85218 0.9375 4.47064 1.09554 4.18934 1.37684C3.90804 1.65814 3.75 2.03968 3.75 2.4375V21.1875C3.75 21.5853 3.90804 21.9669 4.18934 22.2482C4.47064 22.5295 4.85218 22.6875 5.25 22.6875H18.75C19.1478 22.6875 19.5294 22.5295 19.8107 22.2482C20.092 21.9669 20.25 21.5853 20.25 21.1875V6.516L14.6715 0.9375Z" fill="#EDEDED"/>
<path d="M20.1402 6.40617L14.7815 1.04742C14.729 0.994989 14.6622 0.959286 14.5895 0.944823C14.5168 0.930361 14.4414 0.937787 14.3729 0.966163C14.3044 0.994539 14.2458 1.04259 14.2046 1.10425C14.1634 1.1659 14.1414 1.23839 14.1414 1.31254V5.54629C14.1414 5.94412 14.2994 6.32565 14.5807 6.60695C14.862 6.88826 15.2435 7.04629 15.6414 7.04629H19.8751C19.9493 7.04628 20.0218 7.02427 20.0834 6.98307C20.1451 6.94186 20.1931 6.8833 20.2215 6.81479C20.2499 6.74628 20.2573 6.67089 20.2428 6.59816C20.2284 6.52542 20.1927 6.45861 20.1402 6.40617Z" fill="#C6C6C6"/>
<path d="M16.3536 9H7.66786C7.36793 9 7.125 9.24293 7.125 9.54286V18.2286C7.125 18.5285 7.36793 18.7714 7.66786 18.7714H16.3536C16.6535 18.7714 16.8964 18.5285 16.8964 18.2286V9.54286C16.8964 9.24293 16.6535 9 16.3536 9Z" fill="url(#paint0_radial_912_7090)"/>
<path d="M14.1997 13.6319C13.8879 13.32 13.3841 13.3132 13.0638 13.6164L10.3821 16.157V18.7714H16.3535C16.6534 18.7714 16.8964 18.5285 16.8964 18.2285V16.3285L14.1997 13.6319Z" fill="#436DCD"/>
<path d="M13.775 12.2573C14.2996 12.2573 14.7249 11.832 14.7249 11.3073C14.7249 10.7826 14.2996 10.3573 13.775 10.3573C13.2503 10.3573 12.825 10.7826 12.825 11.3073C12.825 11.832 13.2503 12.2573 13.775 12.2573Z" fill="white"/>
<path d="M7.66786 18.7713H16.3536C16.5737 18.7713 16.7626 18.6396 16.8476 18.451L10.9426 12.5461C10.6308 12.2342 10.127 12.2274 9.80672 12.5306L7.125 15.0712V18.2284C7.125 18.5284 7.36793 18.7713 7.66786 18.7713Z" fill="url(#paint1_linear_912_7090)"/>
<defs>
<radialGradient id="paint0_radial_912_7090" cx="0" cy="0" r="1" gradientUnits="userSpaceOnUse" gradientTransform="translate(18.6545 17.2718) scale(6.22712)">
<stop stop-color="#BD8AF5"/>
<stop offset="0.137" stop-color="#B88BF5"/>
<stop offset="0.309" stop-color="#A88FF3"/>
<stop offset="0.499" stop-color="#8F96F2"/>
<stop offset="0.702" stop-color="#6B9EEF"/>
<stop offset="0.913" stop-color="#3EAAEC"/>
<stop offset="1" stop-color="#29AFEA"/>
</radialGradient>
<linearGradient id="paint1_linear_912_7090" x1="11.9863" y1="12.2931" x2="11.9863" y2="18.8839" gradientUnits="userSpaceOnUse">
<stop stop-color="#124787"/>
<stop offset="0.923" stop-color="#173B75"/>
<stop offset="1" stop-color="#173A73"/>
</linearGradient>
</defs>
</svg>
