<svg width="20" height="20" viewBox="0 0 20 20" fill="none" xmlns="http://www.w3.org/2000/svg">
<path d="M9.16666 15.8316V6.25248C9.16666 5.67748 8.87083 5.14332 8.38333 4.83915L5.04999 2.75582C3.93999 2.06248 2.49999 2.85998 2.49999 4.16915V13.7475C2.49999 14.3225 2.79583 14.8567 3.28333 15.1608L6.61666 17.2442C7.72666 17.9383 9.16666 17.14 9.16666 15.8316Z" stroke="#303030" stroke-width="1.5" stroke-linecap="round" stroke-linejoin="round"/>
<path d="M17.5 9.16663H12.5" stroke="#303030" stroke-width="1.5" stroke-linecap="round" stroke-linejoin="round"/>
<path d="M14.1667 7.5L12.5 9.16667L14.1667 10.8333" stroke="#303030" stroke-width="1.5" stroke-linecap="round" stroke-linejoin="round"/>
<path d="M9.16666 15.8334H12.5C13.4208 15.8334 14.1667 15.0875 14.1667 14.1667V13.3334" stroke="#303030" stroke-width="1.5" stroke-linecap="round" stroke-linejoin="round"/>
<path d="M14.1667 5V4.16667C14.1667 3.24583 13.4208 2.5 12.5 2.5H4.16666" stroke="#303030" stroke-width="1.5" stroke-linecap="round" stroke-linejoin="round"/>
</svg>
