<svg width="24" height="24" viewBox="0 0 24 24" fill="none" xmlns="http://www.w3.org/2000/svg">
<g clip-path="url(#clip0_884_6962)">
<path d="M19 11V7.828C19 7.298 18.789 6.789 18.414 6.414L15.586 3.586C15.211 3.211 14.702 3 14.172 3H7C5.895 3 5 3.895 5 5V19C5 20.105 5.895 21 7 21H11" stroke="#323232" stroke-width="1.5" stroke-linecap="round" stroke-linejoin="round"/>
<path d="M19 8H15C14.448 8 14 7.552 14 7V3" stroke="#323232" stroke-width="1.5" stroke-linecap="round" stroke-linejoin="round"/>
<path d="M8.89403 18.054C8.74203 18.054 8.62603 18.012 8.54603 17.928C8.46603 17.844 8.42603 17.726 8.42603 17.574V14.244C8.42603 14.088 8.46603 13.97 8.54603 13.89C8.63003 13.81 8.74803 13.77 8.90003 13.77H10.358C10.83 13.77 11.194 13.89 11.45 14.13C11.706 14.366 11.834 14.696 11.834 15.12C11.834 15.544 11.706 15.876 11.45 16.116C11.194 16.356 10.83 16.476 10.358 16.476H9.35603V17.574C9.35603 17.726 9.31603 17.844 9.23603 17.928C9.16003 18.012 9.04603 18.054 8.89403 18.054ZM9.35603 15.756H10.202C10.442 15.756 10.624 15.702 10.748 15.594C10.876 15.486 10.94 15.328 10.94 15.12C10.94 14.912 10.876 14.756 10.748 14.652C10.624 14.548 10.442 14.496 10.202 14.496H9.35603V15.756Z" fill="#303030"/>
<path d="M12.6964 18C12.5404 18 12.4204 17.958 12.3364 17.874C12.2524 17.79 12.2104 17.67 12.2104 17.514V14.256C12.2104 14.1 12.2524 13.98 12.3364 13.896C12.4204 13.812 12.5404 13.77 12.6964 13.77H13.8664C14.5904 13.77 15.1484 13.954 15.5404 14.322C15.9364 14.686 16.1344 15.206 16.1344 15.882C16.1344 16.222 16.0824 16.524 15.9784 16.788C15.8784 17.048 15.7324 17.268 15.5404 17.448C15.3484 17.628 15.1124 17.766 14.8324 17.862C14.5524 17.954 14.2304 18 13.8664 18H12.6964ZM13.1404 17.238H13.8124C14.0404 17.238 14.2384 17.21 14.4064 17.154C14.5744 17.098 14.7144 17.014 14.8264 16.902C14.9384 16.79 15.0224 16.65 15.0784 16.482C15.1344 16.31 15.1624 16.11 15.1624 15.882C15.1624 15.426 15.0484 15.088 14.8204 14.868C14.5964 14.644 14.2604 14.532 13.8124 14.532H13.1404V17.238Z" fill="#303030"/>
<path d="M17.1309 18.054C16.9789 18.054 16.8609 18.012 16.7769 17.928C16.6969 17.844 16.6569 17.722 16.6569 17.562V14.256C16.6569 14.1 16.6989 13.98 16.7829 13.896C16.8669 13.812 16.9869 13.77 17.1429 13.77H19.1949C19.3149 13.77 19.4049 13.802 19.4649 13.866C19.5289 13.926 19.5609 14.014 19.5609 14.13C19.5609 14.25 19.5289 14.342 19.4649 14.406C19.4049 14.466 19.3149 14.496 19.1949 14.496H17.5869V15.528H19.0629C19.1829 15.528 19.2749 15.56 19.3389 15.624C19.4029 15.684 19.4349 15.772 19.4349 15.888C19.4349 16.004 19.4029 16.094 19.3389 16.158C19.2749 16.222 19.1829 16.254 19.0629 16.254H17.5869V17.562C17.5869 17.89 17.4349 18.054 17.1309 18.054Z" fill="#303030"/>
</g>
<defs>
<clipPath id="clip0_884_6962">
<rect width="24" height="24" fill="white"/>
</clipPath>
</defs>
</svg>
