<svg width="24" height="24" viewBox="0 0 24 24" fill="none" xmlns="http://www.w3.org/2000/svg">
<path d="M14.6715 0.9375H5.25C4.85218 0.9375 4.47064 1.09554 4.18934 1.37684C3.90804 1.65814 3.75 2.03968 3.75 2.4375V21.1875C3.75 21.5853 3.90804 21.9669 4.18934 22.2482C4.47064 22.5295 4.85218 22.6875 5.25 22.6875H18.75C19.1478 22.6875 19.5294 22.5295 19.8107 22.2482C20.092 21.9669 20.25 21.5853 20.25 21.1875V6.516L14.6715 0.9375Z" fill="#EDEDED"/>
<path d="M20.1402 6.40617L14.7815 1.04742C14.729 0.994989 14.6622 0.959286 14.5895 0.944823C14.5168 0.930361 14.4414 0.937787 14.3729 0.966163C14.3044 0.994539 14.2458 1.04259 14.2046 1.10425C14.1634 1.1659 14.1414 1.23839 14.1414 1.31254V5.54629C14.1414 5.94412 14.2994 6.32565 14.5807 6.60695C14.862 6.88826 15.2435 7.04629 15.6414 7.04629H19.8751C19.9493 7.04628 20.0218 7.02427 20.0834 6.98307C20.1451 6.94186 20.1931 6.8833 20.2215 6.81479C20.2499 6.74628 20.2573 6.67089 20.2428 6.59816C20.2284 6.52542 20.1927 6.45861 20.1402 6.40617Z" fill="#C6C6C6"/>
<path d="M19.875 16.2723H11.2823L10.3823 15.2429C10.3119 15.1625 10.2251 15.098 10.1278 15.0539C10.0304 15.0097 9.92477 14.9868 9.81787 14.9868H4.125C3.92609 14.9868 3.73532 15.0658 3.59467 15.2065C3.45402 15.3471 3.375 15.5379 3.375 15.7368V21.1874C3.3756 21.6845 3.57333 22.1611 3.92483 22.5126C4.27633 22.8641 4.7529 23.0618 5.25 23.0624H18.75C19.2471 23.0618 19.7237 22.8641 20.0752 22.5126C20.4267 22.1611 20.6244 21.6845 20.625 21.1874V17.0223C20.625 16.8234 20.546 16.6326 20.4053 16.492C20.2647 16.3513 20.0739 16.2723 19.875 16.2723Z" fill="#EC5D4E"/>
<path d="M8.17058 21.4155C8.05658 21.4155 7.96958 21.384 7.90958 21.321C7.84958 21.258 7.81958 21.1695 7.81958 21.0555V18.558C7.81958 18.441 7.84958 18.3525 7.90958 18.2925C7.97258 18.2325 8.06108 18.2025 8.17508 18.2025H9.26858C9.62258 18.2025 9.89558 18.2925 10.0876 18.4725C10.2796 18.6495 10.3756 18.897 10.3756 19.215C10.3756 19.533 10.2796 19.782 10.0876 19.962C9.89558 20.142 9.62258 20.232 9.26858 20.232H8.51708V21.0555C8.51708 21.1695 8.48708 21.258 8.42708 21.321C8.37008 21.384 8.28458 21.4155 8.17058 21.4155ZM8.51708 19.692H9.15158C9.33158 19.692 9.46808 19.6515 9.56108 19.5705C9.65708 19.4895 9.70508 19.371 9.70508 19.215C9.70508 19.059 9.65708 18.942 9.56108 18.864C9.46808 18.786 9.33158 18.747 9.15158 18.747H8.51708V19.692Z" fill="white"/>
<path d="M10.9849 21.375C10.8679 21.375 10.7779 21.3435 10.7149 21.2805C10.6519 21.2175 10.6204 21.1275 10.6204 21.0105V18.567C10.6204 18.45 10.6519 18.36 10.7149 18.297C10.7779 18.234 10.8679 18.2025 10.9849 18.2025H11.8624C12.4054 18.2025 12.8239 18.3405 13.1179 18.6165C13.4149 18.8895 13.5634 19.2795 13.5634 19.7865C13.5634 20.0415 13.5244 20.268 13.4464 20.466C13.3714 20.661 13.2619 20.826 13.1179 20.961C12.9739 21.096 12.7969 21.1995 12.5869 21.2715C12.3769 21.3405 12.1354 21.375 11.8624 21.375H10.9849ZM11.3179 20.8035H11.8219C11.9929 20.8035 12.1414 20.7825 12.2674 20.7405C12.3934 20.6985 12.4984 20.6355 12.5824 20.5515C12.6664 20.4675 12.7294 20.3625 12.7714 20.2365C12.8134 20.1075 12.8344 19.9575 12.8344 19.7865C12.8344 19.4445 12.7489 19.191 12.5779 19.026C12.4099 18.858 12.1579 18.774 11.8219 18.774H11.3179V20.8035Z" fill="white"/>
<path d="M14.2732 21.4155C14.1592 21.4155 14.0707 21.384 14.0077 21.321C13.9477 21.258 13.9177 21.1665 13.9177 21.0465V18.567C13.9177 18.45 13.9492 18.36 14.0122 18.297C14.0752 18.234 14.1652 18.2025 14.2822 18.2025H15.8212C15.9112 18.2025 15.9787 18.2265 16.0237 18.2745C16.0717 18.3195 16.0957 18.3855 16.0957 18.4725C16.0957 18.5625 16.0717 18.6315 16.0237 18.6795C15.9787 18.7245 15.9112 18.747 15.8212 18.747H14.6152V19.521H15.7222C15.8122 19.521 15.8812 19.545 15.9292 19.593C15.9772 19.638 16.0012 19.704 16.0012 19.791C16.0012 19.878 15.9772 19.9455 15.9292 19.9935C15.8812 20.0415 15.8122 20.0655 15.7222 20.0655H14.6152V21.0465C14.6152 21.2925 14.5012 21.4155 14.2732 21.4155Z" fill="white"/>
<path d="M12.8146 6.21655C12.8422 6.47647 12.8167 6.73929 12.7396 6.98905C12.4058 8.1403 11.2883 12.3365 10.4446 12.9328C9.24083 13.7878 8.61458 12.8165 9.25583 12.1265C9.89708 11.4365 13.7671 10.5178 15.0008 10.5178C16.6058 10.5178 16.3996 11.939 15.4883 11.8528C14.4608 11.7553 11.8921 10.004 11.7383 6.67405C11.6708 5.48905 12.6983 5.2678 12.8146 6.21655V6.21655Z" stroke="#EC5D4E" stroke-width="2" stroke-miterlimit="10"/>
</svg>
