<svg width="24" height="24" viewBox="0 0 24 24" fill="none" xmlns="http://www.w3.org/2000/svg">
<path d="M14.6715 0.9375H5.25C4.85218 0.9375 4.47064 1.09554 4.18934 1.37684C3.90804 1.65814 3.75 2.03968 3.75 2.4375V21.1875C3.75 21.5853 3.90804 21.9669 4.18934 22.2482C4.47064 22.5295 4.85218 22.6875 5.25 22.6875H18.75C19.1478 22.6875 19.5294 22.5295 19.8107 22.2482C20.092 21.9669 20.25 21.5853 20.25 21.1875V6.516L14.6715 0.9375Z" fill="#EDEDED"/>
<path d="M20.1402 6.40617L14.7815 1.04742C14.729 0.994989 14.6622 0.959286 14.5895 0.944823C14.5168 0.930361 14.4414 0.937787 14.3729 0.966163C14.3044 0.994539 14.2458 1.04259 14.2046 1.10425C14.1634 1.1659 14.1414 1.23839 14.1414 1.31254V5.54629C14.1414 5.94412 14.2994 6.32565 14.5807 6.60695C14.862 6.88826 15.2435 7.04629 15.6414 7.04629H19.8751C19.9493 7.04628 20.0218 7.02427 20.0834 6.98307C20.1451 6.94186 20.1931 6.8833 20.2215 6.81479C20.2499 6.74628 20.2573 6.67089 20.2428 6.59816C20.2284 6.52542 20.1927 6.45861 20.1402 6.40617Z" fill="#C6C6C6"/>
<path d="M19.875 16.2723H11.2823L10.3823 15.2429C10.3119 15.1625 10.2251 15.098 10.1278 15.0539C10.0304 15.0097 9.92477 14.9868 9.81787 14.9868H4.125C3.92609 14.9868 3.73532 15.0658 3.59467 15.2065C3.45402 15.3471 3.375 15.5379 3.375 15.7368V21.1874C3.3756 21.6845 3.57333 22.1611 3.92483 22.5126C4.27633 22.8641 4.7529 23.0618 5.25 23.0624H18.75C19.2471 23.0618 19.7237 22.8641 20.0752 22.5126C20.4267 22.1611 20.6244 21.6845 20.625 21.1874V17.0223C20.625 16.8234 20.546 16.6326 20.4053 16.492C20.2647 16.3513 20.0739 16.2723 19.875 16.2723Z" fill="#556080"/>
<path d="M12.2679 10.5536V9.96429H12.8571V9.375H12.2679V8.78571H12.8571V8.19643H12.2679V7.60714H12.8571V7.01786H12.2679V6.42857H12.8571V5.83929H12.2679V5.25H11.6786V5.83929H11.0893V6.42857H11.6786V7.01786H11.0893V7.60714H11.6786V8.19643H11.0893V8.78571H11.6786V9.375H11.0893V9.96429H11.6786V10.5536H10.5V12.0268C10.5 12.8391 11.1609 13.5 11.9732 13.5C12.7855 13.5 13.4464 12.8391 13.4464 12.0268V10.5536H12.2679ZM12.8571 12.0268C12.8571 12.5141 12.4606 12.9107 11.9732 12.9107C11.4859 12.9107 11.0893 12.5141 11.0893 12.0268V11.1429H12.8571V12.0268Z" fill="#C8BDB8"/>
<path d="M11.6787 12.3215H12.268C12.4306 12.3215 12.5626 12.1898 12.5626 12.0268C12.5626 11.8639 12.4306 11.7322 12.268 11.7322H11.6787C11.516 11.7322 11.384 11.8639 11.384 12.0268C11.384 12.1898 11.516 12.3215 11.6787 12.3215Z" fill="#C8BDB8"/>
<path d="M7.79558 21.4155C7.68158 21.4155 7.59458 21.384 7.53458 21.321C7.47458 21.258 7.44458 21.1695 7.44458 21.0555V18.558C7.44458 18.441 7.47458 18.3525 7.53458 18.2925C7.59758 18.2325 7.68608 18.2025 7.80008 18.2025H8.89358C9.24758 18.2025 9.52058 18.288 9.71258 18.459C9.90458 18.63 10.0006 18.8685 10.0006 19.1745C10.0006 19.3725 9.95708 19.5435 9.87008 19.6875C9.78308 19.8315 9.65708 19.9425 9.49208 20.0205C9.33008 20.0985 9.13058 20.1375 8.89358 20.1375L8.92958 20.061H9.11408C9.24008 20.061 9.34958 20.0925 9.44258 20.1555C9.53858 20.2155 9.62108 20.3085 9.69008 20.4345L9.96908 20.952C10.0111 21.027 10.0306 21.1005 10.0276 21.1725C10.0246 21.2445 9.99758 21.303 9.94658 21.348C9.89558 21.393 9.82058 21.4155 9.72158 21.4155C9.62258 21.4155 9.54158 21.3945 9.47858 21.3525C9.41858 21.3105 9.36458 21.246 9.31658 21.159L8.88458 20.3625C8.83958 20.2785 8.78408 20.2215 8.71808 20.1915C8.65508 20.1615 8.57708 20.1465 8.48408 20.1465H8.14208V21.0555C8.14208 21.1695 8.11208 21.258 8.05208 21.321C7.99508 21.384 7.90958 21.4155 7.79558 21.4155ZM8.14208 19.6425H8.76758C8.95358 19.6425 9.09308 19.605 9.18608 19.53C9.28208 19.455 9.33008 19.3425 9.33008 19.1925C9.33008 19.0455 9.28208 18.9345 9.18608 18.8595C9.09308 18.7845 8.95358 18.747 8.76758 18.747H8.14208V19.6425Z" fill="white"/>
<path d="M10.5314 21.4155C10.4474 21.4155 10.3784 21.396 10.3244 21.357C10.2734 21.318 10.2404 21.2655 10.2254 21.1995C10.2134 21.1335 10.2269 21.06 10.2659 20.979L11.4179 18.4545C11.4659 18.3525 11.5229 18.279 11.5889 18.234C11.6549 18.186 11.7314 18.162 11.8184 18.162C11.9054 18.162 11.9819 18.186 12.0479 18.234C12.1139 18.279 12.1694 18.3525 12.2144 18.4545L13.3754 20.979C13.4144 21.06 13.4279 21.135 13.4159 21.204C13.4069 21.27 13.3769 21.3225 13.3259 21.3615C13.2749 21.3975 13.2089 21.4155 13.1279 21.4155C13.0259 21.4155 12.9464 21.3915 12.8894 21.3435C12.8354 21.2955 12.7874 21.2205 12.7454 21.1185L12.4754 20.493L12.7544 20.6865H10.8779L11.1569 20.493L10.8914 21.1185C10.8464 21.2235 10.7984 21.3 10.7474 21.348C10.6994 21.393 10.6274 21.4155 10.5314 21.4155ZM11.8094 18.945L11.2334 20.3175L11.1119 20.142H12.5204L12.3989 20.3175L11.8184 18.945H11.8094Z" fill="white"/>
<path d="M14.1055 21.4155C13.9915 21.4155 13.9045 21.384 13.8445 21.321C13.7845 21.258 13.7545 21.1695 13.7545 21.0555V18.558C13.7545 18.441 13.7845 18.3525 13.8445 18.2925C13.9075 18.2325 13.996 18.2025 14.11 18.2025H15.2035C15.5575 18.2025 15.8305 18.288 16.0225 18.459C16.2145 18.63 16.3105 18.8685 16.3105 19.1745C16.3105 19.3725 16.267 19.5435 16.18 19.6875C16.093 19.8315 15.967 19.9425 15.802 20.0205C15.64 20.0985 15.4405 20.1375 15.2035 20.1375L15.2395 20.061H15.424C15.55 20.061 15.6595 20.0925 15.7525 20.1555C15.8485 20.2155 15.931 20.3085 16 20.4345L16.279 20.952C16.321 21.027 16.3405 21.1005 16.3375 21.1725C16.3345 21.2445 16.3075 21.303 16.2565 21.348C16.2055 21.393 16.1305 21.4155 16.0315 21.4155C15.9325 21.4155 15.8515 21.3945 15.7885 21.3525C15.7285 21.3105 15.6745 21.246 15.6265 21.159L15.1945 20.3625C15.1495 20.2785 15.094 20.2215 15.028 20.1915C14.965 20.1615 14.887 20.1465 14.794 20.1465H14.452V21.0555C14.452 21.1695 14.422 21.258 14.362 21.321C14.305 21.384 14.2195 21.4155 14.1055 21.4155ZM14.452 19.6425H15.0775C15.2635 19.6425 15.403 19.605 15.496 19.53C15.592 19.455 15.64 19.3425 15.64 19.1925C15.64 19.0455 15.592 18.9345 15.496 18.8595C15.403 18.7845 15.2635 18.747 15.0775 18.747H14.452V19.6425Z" fill="white"/>
</svg>
