<svg width="20" height="20" viewBox="0 0 20 20" fill="none" xmlns="http://www.w3.org/2000/svg">
<path d="M15.8333 9.16667V6.52333C15.8333 6.08167 15.6575 5.6575 15.345 5.345L12.9883 2.98833C12.6758 2.67583 12.2516 2.5 11.81 2.5H5.83329C4.91246 2.5 4.16663 3.24583 4.16663 4.16667V15.8333C4.16663 16.7542 4.91246 17.5 5.83329 17.5H9.16663" stroke="#303030" stroke-width="1.5" stroke-linecap="round" stroke-linejoin="round"/>
<path d="M15.8333 6.66667H12.5C12.04 6.66667 11.6666 6.29333 11.6666 5.83333V2.5" stroke="#303030" stroke-width="1.5" stroke-linecap="round" stroke-linejoin="round"/>
<path d="M11.3008 15.255C11.0342 14.8508 11.0342 14.3175 11.3008 13.9133C12.1258 12.6658 13.4208 11.6667 14.7167 11.6667C16.0125 11.6667 17.3067 12.6658 18.1325 13.9125C18.4 14.3167 18.4 14.8508 18.1325 15.2542C17.3058 16.5008 16.0117 17.5 14.7167 17.5C13.4208 17.5008 12.1258 16.5017 11.3008 15.255Z" stroke="#303030" stroke-width="1.5" stroke-linecap="round" stroke-linejoin="round"/>
<path d="M14.8134 14.4867C14.8675 14.5408 14.8675 14.6275 14.8134 14.6817C14.7592 14.7358 14.6726 14.7358 14.6184 14.6817C14.5642 14.6275 14.5642 14.5408 14.6184 14.4867C14.6726 14.4325 14.76 14.4325 14.8134 14.4867Z" stroke="#303030" stroke-width="1.5" stroke-linecap="round" stroke-linejoin="round"/>
</svg>
