<svg width="24" height="24" viewBox="0 0 24 24" fill="none" xmlns="http://www.w3.org/2000/svg">
<path d="M14.6715 0.9375H5.25C4.85218 0.9375 4.47064 1.09554 4.18934 1.37684C3.90804 1.65814 3.75 2.03968 3.75 2.4375V21.1875C3.75 21.5853 3.90804 21.9669 4.18934 22.2482C4.47064 22.5295 4.85218 22.6875 5.25 22.6875H18.75C19.1478 22.6875 19.5294 22.5295 19.8107 22.2482C20.092 21.9669 20.25 21.5853 20.25 21.1875V6.516L14.6715 0.9375Z" fill="#EDEDED"/>
<path d="M20.1402 6.40617L14.7815 1.04742C14.729 0.994989 14.6622 0.959286 14.5895 0.944823C14.5168 0.930361 14.4414 0.937787 14.3729 0.966163C14.3044 0.994539 14.2458 1.04259 14.2046 1.10425C14.1634 1.1659 14.1414 1.23839 14.1414 1.31254V5.54629C14.1414 5.94412 14.2994 6.32565 14.5807 6.60695C14.862 6.88826 15.2435 7.04629 15.6414 7.04629H19.8751C19.9493 7.04628 20.0218 7.02427 20.0834 6.98307C20.1451 6.94186 20.1931 6.8833 20.2215 6.81479C20.2499 6.74628 20.2573 6.67089 20.2428 6.59816C20.2284 6.52542 20.1927 6.45861 20.1402 6.40617Z" fill="#C6C6C6"/>
<path d="M19.875 16.2723H11.2823L10.3823 15.2429C10.3119 15.1625 10.2251 15.098 10.1278 15.0539C10.0304 15.0097 9.92477 14.9868 9.81787 14.9868H4.125C3.92609 14.9868 3.73532 15.0658 3.59467 15.2065C3.45402 15.3471 3.375 15.5379 3.375 15.7368V21.1874C3.3756 21.6845 3.57333 22.1611 3.92483 22.5126C4.27633 22.8641 4.7529 23.0618 5.25 23.0624H18.75C19.2471 23.0618 19.7237 22.8641 20.0752 22.5126C20.4267 22.1611 20.6244 21.6845 20.625 21.1874V17.0223C20.625 16.8234 20.546 16.6326 20.4053 16.492C20.2647 16.3513 20.0739 16.2723 19.875 16.2723Z" fill="#04A04C"/>
<path d="M6 6.39783H12.6412V7.14783H6V6.39783ZM11.3588 11.343H18V12.093H11.3588V11.343ZM6 8.04558H18V8.79558H6V8.04558ZM6 9.69408H18V10.4441H6V9.69408Z" fill="#C6C6C6"/>
<path d="M8.39249 21.4155C8.30249 21.4155 8.22749 21.3915 8.16749 21.3435C8.11049 21.2925 8.07749 21.231 8.06849 21.159C8.05949 21.084 8.08349 21.0075 8.14049 20.9295L9.13499 19.611V19.9215L8.18099 18.6525C8.12399 18.5715 8.09849 18.495 8.10449 18.423C8.11349 18.348 8.14649 18.2865 8.20349 18.2385C8.26349 18.1875 8.33699 18.162 8.42399 18.162C8.49899 18.162 8.56349 18.18 8.61749 18.216C8.67449 18.252 8.73149 18.309 8.78849 18.387L9.53099 19.413H9.30599L10.044 18.387C10.101 18.306 10.158 18.249 10.215 18.216C10.272 18.18 10.338 18.162 10.413 18.162C10.503 18.162 10.5765 18.186 10.6335 18.234C10.6935 18.282 10.7265 18.3435 10.7325 18.4185C10.7415 18.4905 10.716 18.5685 10.656 18.6525L9.69749 19.9215V19.611L10.6875 20.9295C10.7475 21.0075 10.773 21.084 10.764 21.159C10.758 21.231 10.725 21.2925 10.665 21.3435C10.608 21.3915 10.533 21.4155 10.44 21.4155C10.368 21.4155 10.3035 21.3975 10.2465 21.3615C10.1925 21.3255 10.1355 21.267 10.0755 21.186L9.30149 20.1195H9.53099L8.75699 21.186C8.69999 21.267 8.64299 21.3255 8.58599 21.3615C8.52899 21.3975 8.46449 21.4155 8.39249 21.4155Z" fill="white"/>
<path d="M11.5556 21.375C11.4416 21.375 11.3531 21.3435 11.2901 21.2805C11.2301 21.2175 11.2001 21.1305 11.2001 21.0195V18.549C11.2001 18.432 11.2301 18.3435 11.2901 18.2835C11.3501 18.2235 11.4371 18.1935 11.5511 18.1935C11.6621 18.1935 11.7476 18.2235 11.8076 18.2835C11.8676 18.3435 11.8976 18.432 11.8976 18.549V20.7855H13.1036C13.1996 20.7855 13.2731 20.811 13.3241 20.862C13.3781 20.913 13.4051 20.985 13.4051 21.078C13.4051 21.174 13.3781 21.2475 13.3241 21.2985C13.2731 21.3495 13.1996 21.375 13.1036 21.375H11.5556Z" fill="white"/>
<path d="M14.7815 21.4245C14.6555 21.4245 14.5265 21.414 14.3945 21.393C14.2655 21.375 14.141 21.348 14.021 21.312C13.904 21.276 13.799 21.231 13.706 21.177C13.64 21.141 13.5935 21.0945 13.5665 21.0375C13.5395 20.9775 13.529 20.9175 13.535 20.8575C13.544 20.7975 13.5665 20.745 13.6025 20.7C13.6415 20.652 13.6895 20.622 13.7465 20.61C13.8065 20.595 13.8725 20.6055 13.9445 20.6415C14.0675 20.7105 14.201 20.7615 14.345 20.7945C14.492 20.8275 14.6375 20.844 14.7815 20.844C15.0005 20.844 15.1565 20.811 15.2495 20.745C15.3425 20.676 15.389 20.5905 15.389 20.4885C15.389 20.4015 15.356 20.3325 15.29 20.2815C15.224 20.2305 15.1085 20.187 14.9435 20.151L14.435 20.043C14.147 19.983 13.9325 19.881 13.7915 19.737C13.6535 19.59 13.5845 19.398 13.5845 19.161C13.5845 19.011 13.616 18.8745 13.679 18.7515C13.742 18.6285 13.8305 18.522 13.9445 18.432C14.0585 18.342 14.1935 18.273 14.3495 18.225C14.5085 18.177 14.6825 18.153 14.8715 18.153C15.0395 18.153 15.2045 18.174 15.3665 18.216C15.5285 18.255 15.671 18.3135 15.794 18.3915C15.854 18.4275 15.8945 18.474 15.9155 18.531C15.9395 18.585 15.947 18.6405 15.938 18.6975C15.932 18.7515 15.9095 18.7995 15.8705 18.8415C15.8345 18.8835 15.788 18.9105 15.731 18.9225C15.674 18.9345 15.605 18.921 15.524 18.882C15.425 18.831 15.32 18.7935 15.209 18.7695C15.098 18.7455 14.984 18.7335 14.867 18.7335C14.741 18.7335 14.633 18.75 14.543 18.783C14.456 18.816 14.3885 18.8625 14.3405 18.9225C14.2955 18.9825 14.273 19.0515 14.273 19.1295C14.273 19.2165 14.3045 19.287 14.3675 19.341C14.4305 19.395 14.54 19.4385 14.696 19.4715L15.2045 19.5795C15.4985 19.6425 15.7175 19.7445 15.8615 19.8855C16.0055 20.0235 16.0775 20.2065 16.0775 20.4345C16.0775 20.5845 16.0475 20.721 15.9875 20.844C15.9275 20.964 15.8405 21.0675 15.7265 21.1545C15.6125 21.2415 15.476 21.309 15.317 21.357C15.158 21.402 14.9795 21.4245 14.7815 21.4245Z" fill="white"/>
</svg>
