<svg width="24" height="24" viewBox="0 0 24 24" fill="none" xmlns="http://www.w3.org/2000/svg">
<g clip-path="url(#clip0_884_6960)">
<path d="M19 11V7.828C19 7.298 18.789 6.789 18.414 6.414L15.586 3.586C15.211 3.211 14.702 3 14.172 3H7C5.895 3 5 3.895 5 5V19C5 20.105 5.895 21 7 21H11" stroke="#323232" stroke-width="1.5" stroke-linecap="round" stroke-linejoin="round"/>
<path d="M19 8H15C14.448 8 14 7.552 14 7V3" stroke="#323232" stroke-width="1.5" stroke-linecap="round" stroke-linejoin="round"/>
<path d="M8.69007 18.054C8.57007 18.054 8.47007 18.022 8.39007 17.958C8.31407 17.89 8.27007 17.808 8.25807 17.712C8.24607 17.612 8.27807 17.51 8.35407 17.406L9.68007 15.648V16.062L8.40807 14.37C8.33207 14.262 8.29807 14.16 8.30607 14.064C8.31807 13.964 8.36207 13.882 8.43807 13.818C8.51807 13.75 8.61607 13.716 8.73207 13.716C8.83207 13.716 8.91807 13.74 8.99007 13.788C9.06607 13.836 9.14207 13.912 9.21807 14.016L10.2081 15.384H9.90807L10.8921 14.016C10.9681 13.908 11.0441 13.832 11.1201 13.788C11.1961 13.74 11.2841 13.716 11.3841 13.716C11.5041 13.716 11.6021 13.748 11.6781 13.812C11.7581 13.876 11.8021 13.958 11.8101 14.058C11.8221 14.154 11.7881 14.258 11.7081 14.37L10.4301 16.062V15.648L11.7501 17.406C11.8301 17.51 11.8641 17.612 11.8521 17.712C11.8441 17.808 11.8001 17.89 11.7201 17.958C11.6441 18.022 11.5441 18.054 11.4201 18.054C11.3241 18.054 11.2381 18.03 11.1621 17.982C11.0901 17.934 11.0141 17.856 10.9341 17.748L9.90207 16.326H10.2081L9.17607 17.748C9.10007 17.856 9.02407 17.934 8.94807 17.982C8.87207 18.03 8.78607 18.054 8.69007 18.054Z" fill="#303030"/>
<path d="M12.8075 18C12.6555 18 12.5375 17.958 12.4535 17.874C12.3735 17.79 12.3335 17.674 12.3335 17.526V14.232C12.3335 14.076 12.3735 13.958 12.4535 13.878C12.5335 13.798 12.6495 13.758 12.8015 13.758C12.9495 13.758 13.0635 13.798 13.1435 13.878C13.2235 13.958 13.2635 14.076 13.2635 14.232V17.214H14.8715C14.9995 17.214 15.0975 17.248 15.1655 17.316C15.2375 17.384 15.2735 17.48 15.2735 17.604C15.2735 17.732 15.2375 17.83 15.1655 17.898C15.0975 17.966 14.9995 18 14.8715 18H12.8075Z" fill="#303030"/>
<path d="M17.0088 18.066C16.8408 18.066 16.6688 18.052 16.4928 18.024C16.3208 18 16.1548 17.964 15.9948 17.916C15.8388 17.868 15.6988 17.808 15.5748 17.736C15.4868 17.688 15.4248 17.626 15.3888 17.55C15.3528 17.47 15.3388 17.39 15.3468 17.31C15.3588 17.23 15.3888 17.16 15.4368 17.1C15.4888 17.036 15.5528 16.996 15.6288 16.98C15.7088 16.96 15.7968 16.974 15.8928 17.022C16.0568 17.114 16.2348 17.182 16.4268 17.226C16.6228 17.27 16.8168 17.292 17.0088 17.292C17.3008 17.292 17.5088 17.248 17.6328 17.16C17.7568 17.068 17.8188 16.954 17.8188 16.818C17.8188 16.702 17.7748 16.61 17.6868 16.542C17.5988 16.474 17.4448 16.416 17.2248 16.368L16.5468 16.224C16.1628 16.144 15.8768 16.008 15.6888 15.816C15.5048 15.62 15.4128 15.364 15.4128 15.048C15.4128 14.848 15.4548 14.666 15.5388 14.502C15.6228 14.338 15.7408 14.196 15.8928 14.076C16.0448 13.956 16.2248 13.864 16.4328 13.8C16.6448 13.736 16.8768 13.704 17.1288 13.704C17.3528 13.704 17.5728 13.732 17.7888 13.788C18.0048 13.84 18.1948 13.918 18.3588 14.022C18.4388 14.07 18.4928 14.132 18.5208 14.208C18.5528 14.28 18.5628 14.354 18.5508 14.43C18.5428 14.502 18.5128 14.566 18.4608 14.622C18.4128 14.678 18.3508 14.714 18.2748 14.73C18.1988 14.746 18.1068 14.728 17.9988 14.676C17.8668 14.608 17.7268 14.558 17.5788 14.526C17.4308 14.494 17.2788 14.478 17.1228 14.478C16.9548 14.478 16.8108 14.5 16.6908 14.544C16.5748 14.588 16.4848 14.65 16.4208 14.73C16.3608 14.81 16.3308 14.902 16.3308 15.006C16.3308 15.122 16.3728 15.216 16.4568 15.288C16.5408 15.36 16.6868 15.418 16.8948 15.462L17.5728 15.606C17.9648 15.69 18.2568 15.826 18.4488 16.014C18.6408 16.198 18.7368 16.442 18.7368 16.746C18.7368 16.946 18.6968 17.128 18.6168 17.292C18.5368 17.452 18.4208 17.59 18.2688 17.706C18.1168 17.822 17.9348 17.912 17.7228 17.976C17.5108 18.036 17.2728 18.066 17.0088 18.066Z" fill="#303030"/>
</g>
<defs>
<clipPath id="clip0_884_6960">
<rect width="24" height="24" fill="white"/>
</clipPath>
</defs>
</svg>
