<svg width="24" height="24" viewBox="0 0 24 24" fill="none" xmlns="http://www.w3.org/2000/svg">
<path d="M14.6715 0.9375H5.25C4.85218 0.9375 4.47064 1.09554 4.18934 1.37684C3.90804 1.65814 3.75 2.03968 3.75 2.4375V21.1875C3.75 21.5853 3.90804 21.9669 4.18934 22.2482C4.47064 22.5295 4.85218 22.6875 5.25 22.6875H18.75C19.1478 22.6875 19.5294 22.5295 19.8107 22.2482C20.092 21.9669 20.25 21.5853 20.25 21.1875V6.516L14.6715 0.9375Z" fill="#EDEDED"/>
<path d="M20.1402 6.40617L14.7815 1.04742C14.729 0.994989 14.6622 0.959286 14.5895 0.944823C14.5168 0.930361 14.4414 0.937787 14.3729 0.966163C14.3044 0.994539 14.2458 1.04259 14.2046 1.10425C14.1634 1.1659 14.1414 1.23839 14.1414 1.31254V5.54629C14.1414 5.94412 14.2994 6.32565 14.5807 6.60695C14.862 6.88826 15.2435 7.04629 15.6414 7.04629H19.8751C19.9493 7.04628 20.0218 7.02427 20.0834 6.98307C20.1451 6.94186 20.1931 6.8833 20.2215 6.81479C20.2499 6.74628 20.2573 6.67089 20.2428 6.59816C20.2284 6.52542 20.1927 6.45861 20.1402 6.40617Z" fill="#C6C6C6"/>
<path d="M19.875 16.2723H11.2823L10.3823 15.2429C10.3119 15.1625 10.2251 15.098 10.1278 15.0539C10.0304 15.0097 9.92477 14.9868 9.81787 14.9868H4.125C3.92609 14.9868 3.73532 15.0658 3.59467 15.2065C3.45402 15.3471 3.375 15.5379 3.375 15.7368V21.1874C3.3756 21.6845 3.57333 22.1611 3.92483 22.5126C4.27633 22.8641 4.7529 23.0618 5.25 23.0624H18.75C19.2471 23.0618 19.7237 22.8641 20.0752 22.5126C20.4267 22.1611 20.6244 21.6845 20.625 21.1874V17.0223C20.625 16.8234 20.546 16.6326 20.4053 16.492C20.2647 16.3513 20.0739 16.2723 19.875 16.2723Z" fill="#556080"/>
<path d="M8.7765 21.375C8.6865 21.375 8.613 21.357 8.556 21.321C8.499 21.282 8.46 21.231 8.439 21.168C8.421 21.102 8.421 21.03 8.439 20.952C8.46 20.874 8.502 20.796 8.565 20.718L10.203 18.5715V18.783H8.7225C8.6235 18.783 8.547 18.7575 8.493 18.7065C8.442 18.6555 8.4165 18.5835 8.4165 18.4905C8.4165 18.3975 8.442 18.327 8.493 18.279C8.547 18.228 8.6235 18.2025 8.7225 18.2025H10.5315C10.6245 18.2025 10.698 18.222 10.752 18.261C10.809 18.297 10.848 18.3465 10.869 18.4095C10.89 18.4725 10.89 18.5445 10.869 18.6255C10.848 18.7035 10.806 18.7815 10.743 18.8595L9.105 21.0015V20.7945H10.6575C10.7565 20.7945 10.8315 20.82 10.8825 20.871C10.9365 20.919 10.9635 20.9895 10.9635 21.0825C10.9635 21.1785 10.9365 21.252 10.8825 21.303C10.8315 21.351 10.7565 21.375 10.6575 21.375H8.7765Z" fill="white"/>
<path d="M11.6141 21.4155C11.5001 21.4155 11.4131 21.384 11.3531 21.321C11.2931 21.258 11.2631 21.1695 11.2631 21.0555V18.522C11.2631 18.408 11.2931 18.3195 11.3531 18.2565C11.4131 18.1935 11.5001 18.162 11.6141 18.162C11.7251 18.162 11.8106 18.1935 11.8706 18.2565C11.9306 18.3195 11.9606 18.408 11.9606 18.522V21.0555C11.9606 21.1695 11.9306 21.258 11.8706 21.321C11.8136 21.384 11.7281 21.4155 11.6141 21.4155Z" fill="white"/>
<path d="M12.875 21.4155C12.761 21.4155 12.674 21.384 12.614 21.321C12.554 21.258 12.524 21.1695 12.524 21.0555V18.558C12.524 18.441 12.554 18.3525 12.614 18.2925C12.677 18.2325 12.7655 18.2025 12.8795 18.2025H13.973C14.327 18.2025 14.6 18.2925 14.792 18.4725C14.984 18.6495 15.08 18.897 15.08 19.215C15.08 19.533 14.984 19.782 14.792 19.962C14.6 20.142 14.327 20.232 13.973 20.232H13.2215V21.0555C13.2215 21.1695 13.1915 21.258 13.1315 21.321C13.0745 21.384 12.989 21.4155 12.875 21.4155ZM13.2215 19.692H13.856C14.036 19.692 14.1725 19.6515 14.2655 19.5705C14.3615 19.4895 14.4095 19.371 14.4095 19.215C14.4095 19.059 14.3615 18.942 14.2655 18.864C14.1725 18.786 14.036 18.747 13.856 18.747H13.2215V19.692Z" fill="white"/>
<path d="M12.2679 10.5536V9.96429H12.8571V9.375H12.2679V8.78571H12.8571V8.19643H12.2679V7.60714H12.8571V7.01786H12.2679V6.42857H12.8571V5.83929H12.2679V5.25H11.6786V5.83929H11.0893V6.42857H11.6786V7.01786H11.0893V7.60714H11.6786V8.19643H11.0893V8.78571H11.6786V9.375H11.0893V9.96429H11.6786V10.5536H10.5V12.0268C10.5 12.8391 11.1609 13.5 11.9732 13.5C12.7855 13.5 13.4464 12.8391 13.4464 12.0268V10.5536H12.2679ZM12.8571 12.0268C12.8571 12.5141 12.4606 12.9107 11.9732 12.9107C11.4859 12.9107 11.0893 12.5141 11.0893 12.0268V11.1429H12.8571V12.0268Z" fill="#C8BDB8"/>
<path d="M11.6787 12.3215H12.268C12.4306 12.3215 12.5626 12.1898 12.5626 12.0268C12.5626 11.8639 12.4306 11.7322 12.268 11.7322H11.6787C11.516 11.7322 11.384 11.8639 11.384 12.0268C11.384 12.1898 11.516 12.3215 11.6787 12.3215Z" fill="#C8BDB8"/>
</svg>
